HIERARCHY
ROOT joint_Root
{
	OFFSET 0.0 0.0 0.0
	CHANNELS 6 Xposition Yposition Zposition Zrotation Xrotation Yrotation 
	JOINT Hips
	{
		OFFSET -17.1583 93.1646 452.98
		CHANNELS 6 Xposition Yposition Zposition Zrotation Xrotation Yrotation 
		JOINT Spine
		{
			OFFSET 15.7357 0.0 0.0
			CHANNELS 6 Xposition Yposition Zposition Zrotation Xrotation Yrotation 
			JOINT Chest
			{
				OFFSET 8.98455 -0.406207 0.0
				CHANNELS 6 Xposition Yposition Zposition Zrotation Xrotation Yrotation 
				JOINT Neck
				{
					OFFSET 16.3773 0.0 0.0
					CHANNELS 6 Xposition Yposition Zposition Zrotation Xrotation Yrotation 
					JOINT Head
					{
						OFFSET 6.45672 0.0 0.0
						CHANNELS 6 Xposition Yposition Zposition Zrotation Xrotation Yrotation 
						End Site
						{
							OFFSET 0.0 0.0 0.0
						}
					}
				}
				JOINT Shoulder_L
				{
					OFFSET 12.9942 -0.242716 4.98039
					CHANNELS 6 Xposition Yposition Zposition Zrotation Xrotation Yrotation 
					JOINT UpperArm_L
					{
						OFFSET 5.34809 0.0 0.0
						CHANNELS 6 Xposition Yposition Zposition Zrotation Xrotation Yrotation 
						JOINT LowerArm_L
						{
							OFFSET 24.3286 1.87007e-05 0.0
							CHANNELS 6 Xposition Yposition Zposition Zrotation Xrotation Yrotation 
							JOINT Hand_L
							{
								OFFSET 22.2916 0.0 0.0
								CHANNELS 6 Xposition Yposition Zposition Zrotation Xrotation Yrotation 
								End Site
								{
									OFFSET 0.0 0.0 0.0
								}
							}
						}
					}
				}
				JOINT Shoulder_R
				{
					OFFSET 12.9945 -0.242716 -4.98039
					CHANNELS 6 Xposition Yposition Zposition Zrotation Xrotation Yrotation 
					JOINT UpperArm_R
					{
						OFFSET -5.34813 0.0 0.0
						CHANNELS 6 Xposition Yposition Zposition Zrotation Xrotation Yrotation 
						JOINT LowerArm_R
						{
							OFFSET -24.3289 0.000322201 0.0
							CHANNELS 6 Xposition Yposition Zposition Zrotation Xrotation Yrotation 
							JOINT Hand_R
							{
								OFFSET -22.2915 -0.000108084 0.0
								CHANNELS 6 Xposition Yposition Zposition Zrotation Xrotation Yrotation 
								End Site
								{
									OFFSET 0.0 0.0 0.0
								}
							}
						}
					}
				}
			}
		}
		JOINT UpperLeg_L
		{
			OFFSET -2.19248 -6.46944 0.0
			CHANNELS 6 Xposition Yposition Zposition Zrotation Xrotation Yrotation 
			JOINT LowerLeg_L
			{
				OFFSET 39.0811 0.0 -1.23785e-05
				CHANNELS 6 Xposition Yposition Zposition Zrotation Xrotation Yrotation 
				JOINT Foot_L
				{
					OFFSET 40.9854 0.0 -1.26872e-05
					CHANNELS 6 Xposition Yposition Zposition Zrotation Xrotation Yrotation 
					JOINT Toes_L
					{
						OFFSET 11.7543 0.0 0.0
						CHANNELS 6 Xposition Yposition Zposition Zrotation Xrotation Yrotation 
						End Site
						{
							OFFSET 0.0 0.0 0.0
						}
					}
				}
			}
		}
		JOINT UpperLeg_R
		{
			OFFSET -2.19251 6.46944 0.0
			CHANNELS 6 Xposition Yposition Zposition Zrotation Xrotation Yrotation 
			JOINT LowerLeg_R
			{
				OFFSET -39.0811 -0.00228153 -0.0401928
				CHANNELS 6 Xposition Yposition Zposition Zrotation Xrotation Yrotation 
				JOINT Foot_R
				{
					OFFSET -40.9854 0.0 0.0
					CHANNELS 6 Xposition Yposition Zposition Zrotation Xrotation Yrotation 
					JOINT Toes_R
					{
						OFFSET -11.7543 0.0 0.0
						CHANNELS 6 Xposition Yposition Zposition Zrotation Xrotation Yrotation 
						End Site
						{
							OFFSET 0.0 0.0 0.0
						}
					}
				}
			}
		}
	}
}
MOTION
Frames:	5
Frame Time:	0.0333333
0.000000 0.000000 0.000000 0.000000 0.000000 -0.000000 1.174050 92.613800 -456.465000 84.522700 1.677790 -21.950200 15.735700 0.000005 -0.000001 51.541600 84.761400 -47.619100 8.984550 -0.406207 -0.000000 0.689488 -6.756080 7.887300 16.377300 -0.000001 -0.000001 -7.822370 5.848900 0.120772 6.456720 -0.000001 -0.000000 -0.348737 11.804800 -9.109540 12.994200 -0.242716 4.980390 -91.488400 5.383770 -74.521400 5.348090 -0.000007 -0.000001 -74.537800 -23.551200 -14.530000 24.328600 0.000019 0.000005 50.274600 -3.470760 -92.880500 22.291600 -0.000001 0.000005 42.240700 3.945150 25.000300 12.994500 -0.242716 -4.980390 90.537600 -1.852460 -73.813300 -5.348130 -0.000001 -0.000004 -63.087700 -15.629000 24.891200 -24.328900 0.000322 -0.000009 1.929570 4.446470 -23.500400 -22.291500 -0.000108 -0.000004 45.742200 5.399660 -2.926720 -2.192480 -6.469440 -0.000000 -174.884000 -0.439184 -6.880680 39.081100 -0.000007 -0.000012 -0.009523 0.027889 18.852600 40.985400 -0.000006 -0.000013 3.741560 7.436930 -55.330600 11.754300 -0.000000 0.000003 -0.107833 -0.463601 -35.966200 -2.192510 6.469440 -0.000001 -172.420000 -4.352140 127.167000 -39.081100 -0.002282 -0.040193 -0.018949 0.013283 59.055600 -40.985400 0.000008 0.000006 -7.040060 -20.519800 -69.354500 -11.754300 -0.000006 -0.000006 -0.000670 0.178268 -9.342230
0.000000 0.000000 0.000000 0.000000 0.000000 -0.000000 0.981583 93.978600 -449.862000 83.996900 1.781810 -22.740300 15.735700 0.000005 -0.000001 46.108400 84.991500 -41.709800 8.984550 -0.406207 -0.000000 -0.249505 -7.250500 8.785890 16.377300 -0.000001 -0.000001 -7.251720 6.344090 -0.225977 6.456720 -0.000001 -0.000000 0.231393 12.609800 -9.463300 12.994200 -0.242716 4.980390 -91.461600 5.335320 -74.655600 5.348090 -0.000007 -0.000001 -73.933600 -22.047800 -12.036700 24.328600 0.000019 0.000005 47.793200 -3.471980 -93.143800 22.291600 -0.000001 0.000005 42.555700 3.976250 24.562400 12.994500 -0.242716 -4.980390 90.666500 -2.289400 -73.762500 -5.348130 -0.000001 -0.000004 -60.510700 -17.616100 27.900100 -24.328900 0.000322 -0.000009 1.240720 2.667280 -24.981800 -22.291500 -0.000108 -0.000004 45.808500 5.370520 -2.005700 -2.192480 -6.469440 -0.000000 -175.175000 -2.055240 -3.057050 39.081100 -0.000007 -0.000012 -0.018141 0.078099 13.076300 40.985400 -0.000006 -0.000013 4.922310 5.915530 -40.603800 11.754300 -0.000000 0.000003 -0.130393 -0.514468 -38.222400 -2.192510 6.469440 -0.000001 -173.750000 -5.506460 129.875000 -39.081100 -0.002282 -0.040193 0.017460 -0.015100 43.221300 -40.985400 0.000008 0.000006 -8.650770 -16.064100 -72.218000 -11.754300 -0.000006 -0.000006 -0.000751 0.179469 -9.293440
0.000000 0.000000 0.000000 0.000000 0.000000 -0.000000 1.107950 94.180900 -442.757000 85.185800 0.963801 -21.382900 15.735700 0.000005 -0.000001 46.375600 84.775500 -42.323600 8.984550 -0.406207 -0.000000 0.081475 -7.478730 8.113590 16.377300 -0.000001 -0.000001 -6.806270 6.662620 -0.320060 6.456720 -0.000001 -0.000000 0.739871 13.191300 -9.586270 12.994200 -0.242716 4.980390 -91.524600 5.617290 -74.788700 5.348090 -0.000007 -0.000001 -72.922400 -19.245300 -8.880160 24.328600 0.000019 0.000005 46.693200 -2.288850 -92.155100 22.291600 -0.000001 0.000005 42.780000 4.005480 24.149000 12.994500 -0.242716 -4.980390 90.607700 -2.078800 -73.700000 -5.348130 -0.000001 -0.000004 -58.708400 -19.044200 28.596000 -24.328900 0.000322 -0.000009 0.215379 0.458790 -25.253600 -22.291500 -0.000108 -0.000004 48.335400 5.350460 -1.413890 -2.192480 -6.469440 -0.000000 -177.306000 -3.435250 0.060263 39.081100 -0.000007 -0.000012 -0.007258 0.029461 13.838400 40.985400 -0.000006 -0.000013 3.864450 2.438870 -30.843400 11.754300 -0.000000 0.000003 -0.041427 -0.265762 -27.498100 -2.192510 6.469440 -0.000001 -176.753000 -6.411590 135.474000 -39.081100 -0.002282 -0.040193 0.025695 -0.040013 29.231300 -40.985400 0.000008 0.000006 -9.791560 -12.901300 -74.614400 -11.754300 -0.000006 -0.000006 -0.001001 0.183094 -9.146140
0.000000 0.000000 0.000000 0.000000 0.000000 -0.000000 1.186050 93.112500 -435.414000 86.549700 0.111582 -19.214200 15.735700 0.000005 -0.000001 49.275700 84.539800 -45.760400 8.984550 -0.406207 -0.000000 0.754504 -7.337150 7.081350 16.377300 -0.000001 -0.000001 -6.100630 6.726560 -0.442124 6.456720 -0.000001 -0.000000 1.274220 13.309500 -9.421650 12.994200 -0.242716 4.980390 -91.583200 5.839360 -74.801300 5.348090 -0.000007 -0.000001 -71.954300 -14.550700 -5.140710 24.328600 0.000019 0.000005 44.999700 0.491283 -89.507100 22.291600 -0.000001 0.000005 42.474100 4.050940 23.498600 12.994500 -0.242716 -4.980390 90.432900 -1.464500 -73.530800 -5.348130 -0.000001 -0.000004 -58.049900 -19.689200 26.884300 -24.328900 0.000322 -0.000009 -0.295808 -0.658432 -24.129900 -22.291500 -0.000108 -0.000004 50.993600 5.349010 -1.343750 -2.192480 -6.469440 -0.000000 -179.387000 -3.252980 0.687879 39.081100 -0.000007 -0.000012 0.013990 -0.034876 21.856900 40.985400 -0.000006 -0.000013 0.829288 1.159080 -25.858500 11.754300 -0.000000 0.000003 0.001711 0.036971 -15.077000 -2.192510 6.469440 -0.000001 -178.843000 -6.739240 140.070000 -39.081100 -0.002282 -0.040193 0.022619 -0.045049 23.195500 -40.985400 0.000008 0.000006 -11.292800 -12.642700 -77.525100 -11.754300 -0.000006 -0.000006 -0.000773 0.179801 -9.279950
0.000000 0.000000 0.000000 0.000000 0.000000 -0.000000 0.872306 91.061400 -428.290000 86.163000 -0.349369 -18.444200 15.735700 0.000005 -0.000001 52.954100 84.795800 -49.312600 8.984550 -0.406207 -0.000000 0.765709 -6.490680 7.327220 16.377300 -0.000001 -0.000001 -5.301050 6.710250 -0.637038 6.456720 -0.000001 -0.000000 1.460950 12.915300 -9.493040 12.994200 -0.242716 4.980390 -91.687000 6.136190 -74.596500 5.348090 -0.000007 -0.000001 -72.374000 -9.364470 -1.616210 24.328600 0.000019 0.000005 43.751200 5.271340 -84.519200 22.291600 -0.000001 0.000005 40.474700 4.148040 22.082200 12.994500 -0.242716 -4.980390 90.270700 -0.907149 -73.384600 -5.348130 -0.000001 -0.000004 -59.194300 -18.658800 22.774300 -24.328900 0.000322 -0.000009 -0.333793 -0.808816 -22.361300 -22.291500 -0.000108 -0.000004 52.201000 5.367480 -1.908650 -2.192480 -6.469440 -0.000000 179.940000 -1.425890 -2.206640 39.081100 -0.000007 -0.000012 -0.025037 0.036791 34.236800 40.985400 -0.000006 -0.000013 0.101978 5.087920 -27.069600 11.754300 -0.000000 0.000003 0.001505 0.031124 -15.314200 -2.192510 6.469440 -0.000001 -176.995000 -5.357860 139.565000 -39.081100 -0.002282 -0.040193 0.069703 -0.121263 28.703300 -40.985400 0.000008 0.000006 -9.988940 -10.834700 -76.397900 -11.754300 -0.000006 -0.000006 -0.000259 0.171917 -9.600230
